<?xml version="1.0" standalone="no"?>
<!DOCTYPE svg PUBLIC "-//W3C//DTD SVG 20010904//EN"
 "http://www.w3.org/TR/2001/REC-SVG-20010904/DTD/svg10.dtd">
<svg version="1.0" xmlns="http://www.w3.org/2000/svg"
 width="534.000000pt" height="534.000000pt" viewBox="0 0 534.000000 534.000000"
 preserveAspectRatio="xMidYMid meet">
<metadata>
Created by potrace 1.14, written by Peter Selinger 2001-2017
</metadata>
<g transform="translate(0.000000,534.000000) scale(0.100000,-0.100000)"
fill="#000000" stroke="none">
<path d="M879 4976 c-2 -2 -24 -6 -49 -10 -56 -7 -92 -16 -106 -27 -6 -5 -13
-7 -16 -4 -3 3 -22 -2 -44 -12 -21 -9 -46 -18 -54 -19 -8 -2 -20 -10 -26 -19
-7 -9 -15 -15 -19 -14 -14 4 -124 -75 -118 -84 3 -6 1 -7 -5 -4 -35 22 -279
-317 -256 -354 3 -5 1 -9 -4 -9 -5 0 -19 -33 -30 -72 -26 -89 -31 -114 -39
-202 -5 -57 -4 -68 8 -64 8 3 13 13 13 22 -1 9 2 16 7 16 5 0 9 4 9 9 0 5 4
20 9 33 5 13 9 27 9 32 0 5 4 12 9 15 5 3 23 31 39 61 16 30 32 57 37 58 4 2
7 8 7 13 0 5 9 20 21 33 12 13 21 27 20 30 0 3 12 18 27 33 15 15 41 44 58 63
32 38 101 100 153 139 59 44 209 121 236 121 8 0 15 5 15 10 0 6 3 9 8 8 9 -3
113 22 127 30 5 3 16 7 25 8 8 0 38 4 65 8 115 17 191 22 305 21 66 -1 120 1
120 5 0 9 -116 63 -135 63 -8 0 -15 4 -15 8 0 3 -12 9 -27 12 -16 3 -57 13
-93 22 -55 14 -281 30 -291 21z"/>
<path d="M4279 4975 c-2 -2 -28 -6 -58 -9 -70 -8 -211 -47 -211 -58 0 -5 -4
-6 -10 -3 -5 3 -10 1 -10 -5 0 -6 -4 -9 -9 -5 -11 6 -61 -15 -61 -27 0 -4 -5
-7 -11 -5 -6 1 -13 -3 -16 -10 -3 -8 27 -10 109 -9 148 3 305 -12 413 -41 33
-9 67 -17 75 -18 36 -5 170 -65 218 -97 23 -16 42 -25 42 -21 0 4 4 3 8 -2 16
-23 90 -74 97 -67 5 4 5 2 2 -4 -7 -12 38 -56 47 -47 3 4 6 1 6 -5 0 -14 56
-72 64 -66 3 2 4 1 2 -2 -3 -4 61 -97 104 -151 6 -7 10 -17 10 -23 0 -6 6 -8
13 -4 6 4 9 4 5 -1 -4 -4 8 -35 26 -69 18 -33 41 -85 50 -114 10 -28 21 -50
26 -47 12 7 3 120 -16 211 -8 43 -53 169 -77 217 -38 80 -92 159 -102 149 -5
-4 -5 -2 -1 5 7 12 -92 117 -159 169 -52 40 -115 77 -115 69 0 -3 -7 1 -16 9
-8 9 -23 16 -33 16 -9 0 -21 4 -26 9 -14 13 -116 42 -126 35 -5 -3 -9 -1 -9 4
0 5 -6 9 -12 10 -46 4 -237 10 -239 7z"/>
<path d="M1124 4560 c-17 -4 -38 -6 -47 -4 -9 1 -17 -2 -17 -7 0 -6 -5 -7 -10
-4 -6 4 -26 1 -46 -5 -19 -7 -41 -13 -47 -14 -39 -8 -97 -30 -97 -38 0 -5 -4
-6 -10 -3 -5 3 -10 1 -10 -6 0 -7 -3 -9 -6 -6 -7 7 -84 -31 -96 -48 -4 -5 -8
-6 -8 -2 0 9 -43 -20 -77 -53 -13 -11 -23 -18 -23 -16 0 3 -20 -15 -45 -40
-25 -24 -45 -49 -45 -55 0 -6 -4 -7 -10 -4 -5 3 -10 2 -10 -3 0 -4 -8 -17 -17
-28 -29 -32 -85 -114 -78 -114 4 0 -1 -7 -9 -16 -9 -8 -14 -20 -11 -25 4 -5 1
-9 -5 -9 -6 0 -8 -4 -5 -10 3 -5 2 -10 -4 -10 -5 0 -13 -10 -17 -22 -3 -12
-13 -37 -22 -57 -16 -37 -22 -55 -26 -81 -1 -9 -5 -20 -8 -26 -4 -6 -9 -21
-12 -35 -2 -13 -11 -55 -19 -93 -17 -79 -19 -343 -2 -338 6 1 10 5 10 10 1 11
18 106 22 120 1 6 4 18 6 25 1 6 6 18 10 25 5 6 6 12 2 12 -3 0 -1 9 5 21 6
11 13 28 15 38 2 9 18 48 36 86 18 39 32 73 31 78 -1 4 2 7 7 7 9 0 20 23 21
42 0 4 12 20 25 34 14 15 25 31 25 37 0 5 8 16 17 24 12 9 13 12 3 8 -8 -4 -4
3 10 14 14 11 22 21 18 21 -6 0 6 14 83 96 16 17 26 34 22 39 -5 4 -3 5 3 2 7
-4 30 13 53 38 23 25 42 44 44 43 5 -4 107 77 107 85 0 4 4 6 9 3 5 -3 21 4
37 17 16 12 29 21 29 19 0 -2 27 9 60 24 32 15 65 27 72 27 7 0 13 4 13 9 0 5
4 7 8 4 5 -3 26 1 48 9 21 7 57 16 79 19 22 4 54 10 70 13 38 9 406 9 463 0
23 -3 42 -5 42 -3 0 6 -74 48 -90 51 -8 2 -17 4 -20 5 -3 1 -8 2 -12 1 -5 0
-8 3 -8 8 0 7 -22 15 -75 27 -5 1 -13 3 -17 4 -9 3 -14 4 -53 13 -90 20 -329
31 -391 17z"/>
<path d="M3938 4565 c-2 -1 -23 -6 -48 -10 -93 -13 -139 -24 -160 -35 -10 -5
-20 -7 -22 -4 -3 3 -31 -7 -61 -21 -31 -14 -60 -25 -65 -25 -5 0 -17 -10 -28
-21 l-19 -22 40 9 c49 10 401 11 470 1 80 -12 84 -13 91 -20 4 -4 15 -7 25 -7
9 0 49 -11 88 -24 39 -13 71 -22 71 -19 0 2 7 -3 16 -11 8 -9 20 -14 25 -11 5
4 9 1 9 -4 0 -6 7 -11 15 -11 8 0 15 -5 15 -11 0 -5 5 -7 11 -4 6 4 16 0 22
-8 7 -9 19 -17 27 -19 8 -2 21 -11 28 -20 7 -10 19 -18 26 -18 8 0 17 -7 20
-16 4 -9 9 -15 11 -12 3 3 33 -21 67 -54 33 -32 65 -58 69 -58 4 0 11 -9 14
-20 4 -11 11 -18 16 -15 5 4 9 -1 9 -9 0 -8 10 -22 22 -30 12 -9 18 -16 13
-16 -5 0 6 -14 23 -31 18 -17 32 -37 32 -43 0 -6 10 -22 23 -36 19 -22 121
-212 122 -229 1 -3 9 -28 19 -56 10 -27 21 -57 24 -65 3 -8 6 -19 6 -25 1 -5
8 -37 15 -70 8 -33 14 -66 14 -72 0 -22 14 -14 19 10 6 32 1 256 -7 292 -3 17
-9 44 -12 60 -3 17 -6 35 -8 40 -1 6 -6 25 -10 43 -4 18 -11 35 -16 38 -4 2
-6 11 -2 19 3 8 0 15 -6 15 -6 0 -8 7 -5 15 4 8 1 15 -5 15 -6 0 -10 4 -8 8 3
12 -26 82 -35 82 -4 0 -7 3 -6 8 4 14 -14 52 -24 52 -6 0 -9 3 -5 6 8 8 -65
117 -110 164 -18 19 -33 38 -33 43 0 4 -7 7 -15 7 -8 0 -15 4 -15 10 0 21
-194 150 -226 150 -8 0 -14 5 -14 10 0 6 -9 10 -19 10 -11 0 -23 5 -26 10 -4
6 -10 8 -15 5 -5 -3 -12 0 -15 6 -4 5 -13 8 -21 5 -8 -3 -14 -1 -14 5 0 6 -7
9 -15 5 -8 -3 -15 -2 -15 3 0 4 -6 8 -12 9 -7 0 -24 3 -38 6 -56 14 -111 19
-232 21 -70 2 -128 2 -130 0z"/>
<path d="M1306 4249 c-16 -5 -33 -6 -38 -3 -4 3 -8 0 -8 -7 0 -7 -3 -10 -6 -7
-3 4 -20 2 -37 -3 -18 -6 -40 -12 -51 -14 -10 -2 -24 -9 -30 -15 -7 -5 -16 -7
-19 -3 -4 3 -7 1 -7 -5 0 -7 -3 -11 -7 -10 -15 4 -53 -13 -53 -23 0 -6 -4 -8
-8 -5 -5 3 -18 -3 -28 -12 -10 -10 -23 -19 -27 -19 -5 -1 -19 -10 -32 -21 -13
-11 -25 -19 -27 -17 -9 10 -187 -188 -187 -208 0 -4 -7 -15 -16 -23 -8 -9 -13
-20 -10 -25 4 -5 1 -9 -4 -9 -6 0 -11 -6 -11 -14 0 -8 -4 -16 -9 -18 -5 -1
-11 -12 -13 -23 -1 -11 -6 -23 -11 -26 -4 -3 -9 -14 -12 -25 -2 -10 -11 -37
-19 -59 -29 -82 -48 -201 -47 -303 0 -56 2 -106 5 -111 3 -4 8 -23 11 -42 8
-47 55 -167 72 -180 7 -6 13 -17 13 -23 0 -6 14 -26 32 -45 37 -39 43 -73 17
-92 -10 -7 -19 -19 -19 -26 0 -7 -5 -13 -11 -13 -5 0 -7 -4 -4 -10 3 -5 2 -10
-4 -10 -8 0 -18 -19 -26 -50 -1 -3 -7 -18 -15 -35 -44 -104 -50 -317 -11 -459
12 -44 25 -84 29 -90 4 -6 7 -13 7 -16 2 -19 39 -100 46 -100 5 0 9 -7 9 -15
0 -23 65 -116 75 -107 5 4 5 2 1 -5 -12 -21 161 -183 178 -166 3 3 6 1 6 -5 0
-14 91 -42 136 -42 18 0 44 4 57 9 24 9 24 9 17 -31 -29 -154 36 -381 134
-472 17 -16 24 -25 16 -21 -8 5 3 -10 25 -33 22 -22 43 -38 47 -35 5 2 7 1 6
-4 -2 -4 1 -9 5 -10 4 -1 17 -12 27 -25 11 -13 19 -19 20 -14 0 4 9 -2 20 -15
10 -13 19 -21 20 -17 0 4 9 0 20 -10 12 -9 23 -16 26 -14 2 1 12 -4 20 -13 9
-8 20 -13 25 -10 5 4 9 1 9 -5 0 -6 11 -15 25 -20 14 -6 37 -15 53 -22 15 -6
32 -12 37 -14 6 -2 37 -13 70 -24 33 -11 71 -21 85 -22 14 -1 30 -4 35 -7 6
-3 31 -6 58 -7 54 -1 58 -4 63 -36 9 -65 23 -108 35 -108 6 0 8 -4 5 -9 -7
-10 52 -101 65 -101 5 0 8 -4 6 -8 -2 -8 105 -122 116 -122 3 0 21 -14 40 -31
19 -17 37 -30 39 -28 1 2 13 -6 26 -16 12 -11 26 -20 30 -19 4 0 13 -6 20 -13
8 -7 18 -11 23 -8 5 4 9 1 9 -5 0 -6 4 -9 9 -6 5 4 11 1 13 -4 2 -6 10 -12 18
-14 8 -2 22 -6 31 -10 9 -4 27 -8 41 -10 13 -1 29 -5 35 -9 17 -11 156 8 161
22 2 6 9 8 17 5 7 -3 16 0 20 5 3 6 11 9 16 6 5 -4 9 -1 9 6 0 7 3 9 6 6 8 -8
63 21 82 43 8 9 11 10 7 2 -7 -13 91 51 110 73 6 6 25 21 43 34 18 13 31 26
28 28 -3 3 6 14 19 25 14 11 23 24 20 29 -4 5 0 9 7 9 15 1 69 85 71 112 1 10
5 18 9 18 4 0 7 3 7 8 -1 4 0 9 1 12 5 13 11 49 13 82 4 42 6 47 33 53 11 3
42 10 69 17 28 6 52 14 55 17 3 4 12 7 20 8 28 3 56 11 92 26 20 9 38 13 41
11 2 -3 10 2 16 10 7 8 20 12 28 9 12 -5 14 -3 8 7 -5 8 -4 11 2 7 12 -8 73
20 73 33 0 5 7 7 15 4 8 -4 15 -1 15 5 0 6 6 11 14 11 8 0 22 10 30 22 9 12
16 18 16 13 0 -6 7 -1 15 9 8 11 15 17 15 13 0 -4 9 1 19 10 11 9 17 21 14 27
-3 6 -2 8 2 3 10 -9 86 73 79 85 -3 4 0 8 6 8 11 0 48 56 50 75 1 6 9 19 18
29 13 15 13 17 2 11 -11 -6 -10 -3 2 11 10 11 19 29 21 40 2 10 9 30 14 44 12
30 27 99 26 123 0 9 2 17 6 17 3 0 6 17 6 38 0 41 11 55 34 43 9 -5 34 -7 56
-4 22 2 46 4 53 5 6 1 12 5 12 9 0 5 6 6 14 3 7 -3 21 2 29 11 9 9 20 16 24
17 21 2 52 22 47 29 -3 5 0 9 6 9 15 0 118 108 126 132 3 10 10 18 15 18 6 0
7 4 4 10 -3 5 -2 10 2 10 10 0 44 60 42 74 0 5 3 12 8 15 15 10 54 101 48 111
-4 6 -1 10 5 10 6 0 8 4 5 10 -3 6 -1 10 6 10 7 0 10 3 6 6 -3 3 1 24 9 47 8
23 12 47 10 54 -3 7 -2 13 2 13 7 0 13 52 14 130 1 59 -10 131 -22 145 -6 7
-7 15 -3 18 3 4 1 7 -6 7 -7 0 -9 5 -6 10 3 6 2 10 -4 10 -5 0 -8 6 -7 13 3
20 32 57 40 50 4 -4 9 3 13 15 3 12 8 20 12 18 3 -2 19 14 34 36 16 22 22 37
15 33 -7 -3 -5 0 5 8 9 8 17 18 17 22 0 4 10 21 22 38 12 17 16 27 7 22 -8 -5
-7 0 4 12 10 12 20 30 22 40 2 10 4 19 5 21 2 1 4 7 5 12 1 6 4 13 5 18 1 4 2
10 1 15 0 4 3 7 8 7 5 0 8 8 6 18 -1 9 0 22 4 27 14 25 23 110 24 230 1 107
-8 195 -23 235 -1 3 -2 8 -1 13 0 4 -4 7 -10 7 -5 0 -7 5 -4 10 4 6 1 17 -5
25 -7 8 -10 15 -7 15 10 0 -40 93 -63 118 -11 12 -18 22 -15 22 4 0 -15 18
-40 40 -42 36 -52 42 -71 39 -4 0 -10 4 -14 10 -9 16 -45 23 -117 25 -35 0
-63 3 -64 6 0 3 -2 23 -4 45 -1 22 -4 41 -5 43 -4 3 -7 20 -9 41 0 11 -7 26
-13 33 -7 7 -14 20 -16 28 -6 26 -43 70 -54 64 -6 -4 -8 -2 -4 4 6 11 -63 72
-83 72 -6 0 -11 5 -11 10 0 6 -9 10 -20 10 -11 0 -20 5 -20 11 0 6 -7 9 -15 5
-8 -3 -15 -2 -15 3 0 7 -61 29 -105 37 -5 1 -12 3 -15 4 -16 7 -88 12 -180 12
-138 0 -310 -43 -341 -85 -3 -5 -9 -8 -13 -8 -3 1 -10 1 -14 1 -12 0 -122
-109 -122 -120 0 -6 0 -13 1 -16 0 -4 -3 -10 -8 -13 -5 -3 -14 -18 -21 -34 -9
-21 -17 -26 -34 -22 -70 16 -159 13 -263 -10 -85 -18 -222 -126 -269 -212 -12
-21 -24 -40 -27 -43 -7 -6 -44 -87 -55 -120 -10 -30 -9 -26 -18 -72 -5 -21
-12 -38 -16 -38 -4 0 -11 17 -16 38 -9 42 -10 50 -14 57 -3 5 -3 6 -15 50 -4
17 -13 36 -19 44 -6 8 -10 15 -8 15 7 2 -20 62 -36 80 -9 10 -16 20 -14 22 7
11 -36 72 -91 128 -51 51 -145 120 -167 121 -3 1 -15 6 -28 13 -12 7 -27 10
-32 7 -6 -3 -10 -1 -10 5 0 7 -7 10 -15 7 -8 -4 -17 -2 -20 3 -3 5 -13 9 -23
9 -9 0 -42 3 -72 6 -30 4 -66 6 -80 5 -14 -1 -47 -3 -75 -5 -27 -1 -50 -4 -50
-5 0 -1 -10 -3 -22 -4 -13 -2 -23 2 -23 9 0 14 -50 83 -50 69 0 -5 -5 -1 -11
9 -14 23 -99 78 -110 71 -5 -3 -9 0 -9 6 0 6 -4 9 -9 6 -5 -4 -11 -2 -13 3 -3
9 -28 17 -93 27 -55 9 -200 11 -229 3z"/>
<path d="M445 1962 c3 -31 7 -68 10 -82 4 -14 9 -38 12 -55 3 -16 9 -38 14
-47 5 -10 7 -18 3 -18 -3 0 -1 -6 5 -13 6 -8 8 -17 4 -20 -3 -4 -2 -7 3 -7 5
0 10 -8 11 -17 1 -25 26 -86 38 -95 6 -4 6 -8 2 -8 -4 0 -2 -10 5 -22 7 -13
13 -25 13 -28 2 -14 59 -116 67 -121 5 -3 9 -9 9 -12 -1 -11 33 -69 52 -89 9
-10 14 -18 11 -18 -5 0 58 -86 90 -122 9 -10 16 -23 16 -29 0 -5 5 -7 10 -4 6
3 10 2 10 -3 0 -5 24 -35 54 -66 29 -31 50 -56 47 -56 -3 0 6 -8 19 -17 14 -9
31 -25 38 -35 7 -10 20 -18 29 -18 9 0 13 -3 10 -7 -8 -7 34 -39 46 -35 5 1 6
-2 2 -8 -3 -5 2 -13 12 -17 10 -4 23 -12 28 -18 13 -15 113 -85 121 -85 3 0
19 -9 35 -21 16 -11 29 -17 29 -12 0 4 4 3 8 -3 8 -13 72 -47 72 -39 0 4 7 -1
16 -9 8 -9 24 -16 35 -16 10 0 19 -4 19 -10 0 -5 7 -10 15 -10 8 0 23 -4 33
-9 49 -25 205 -61 221 -52 13 8 -13 37 -38 43 -7 2 -25 13 -39 25 -14 13 -31
23 -37 23 -7 0 -16 7 -19 16 -4 9 -9 14 -12 11 -3 -3 -17 6 -30 20 -13 14 -24
23 -24 19 0 -3 -8 2 -18 12 -10 9 -33 28 -52 42 -18 14 -38 30 -44 36 -6 5
-49 44 -96 85 -139 122 -420 419 -444 470 -5 10 -15 19 -22 19 -7 0 -16 5 -20
12 -5 7 -2 9 7 4 8 -4 2 4 -14 18 -15 14 -28 29 -29 33 -3 16 -92 133 -100
133 -5 0 -7 4 -4 8 3 5 -4 18 -14 30 -11 12 -20 24 -20 27 0 3 -8 18 -18 33
-11 15 -32 47 -48 72 -16 25 -33 48 -38 52 -5 3 -11 15 -12 25 -2 9 -8 19 -14
21 -5 2 -8 8 -4 13 3 5 -2 12 -10 15 -9 3 -14 10 -11 14 3 5 -2 15 -10 23 -8
9 -15 22 -15 30 0 8 -7 17 -15 20 -12 5 -14 -4 -10 -51z"/>
<path d="M4857 1998 c-2 -7 -4 -16 -3 -19 0 -3 -7 -13 -16 -23 -10 -10 -18
-24 -18 -32 0 -8 -4 -14 -8 -14 -5 0 -19 -21 -32 -47 -13 -27 -28 -52 -32 -58
-30 -38 -76 -114 -71 -119 4 -3 2 -6 -4 -6 -6 0 -27 -24 -47 -52 -75 -108
-108 -151 -168 -223 -16 -18 -28 -38 -28 -44 0 -7 -4 -9 -10 -6 -5 3 -10 2
-10 -3 0 -9 -21 -33 -126 -144 -30 -32 -53 -58 -50 -58 2 0 -10 -15 -27 -33
-18 -18 -36 -33 -42 -33 -5 1 -9 -5 -8 -11 2 -7 -4 -13 -13 -13 -8 0 -13 -3
-11 -7 2 -5 -7 -18 -20 -30 -13 -12 -23 -20 -23 -17 0 10 -35 -30 -35 -40 -1
-6 -6 -10 -12 -9 -7 2 -21 -9 -31 -22 -11 -14 -24 -25 -28 -25 -5 0 -20 -12
-33 -25 -13 -14 -27 -25 -33 -25 -5 0 -7 -4 -4 -8 2 -4 -9 -14 -25 -21 -16 -7
-27 -16 -24 -21 3 -4 -9 -13 -26 -20 -16 -7 -36 -22 -44 -34 -8 -11 -15 -16
-15 -11 0 6 -5 2 -11 -8 -5 -9 -15 -17 -20 -17 -6 0 -20 -10 -31 -23 -11 -12
-17 -15 -13 -7 4 8 -3 4 -15 -10 -12 -14 -23 -23 -25 -20 -1 3 -16 -6 -33 -19
-43 -32 -32 -42 28 -26 28 7 50 12 50 10 0 -2 19 3 43 11 23 9 49 17 57 19 8
2 16 4 18 5 1 2 5 3 10 4 4 1 25 10 47 20 22 9 41 17 42 17 9 -1 122 65 142
83 13 11 21 15 16 7 -5 -9 2 -7 18 5 15 10 27 22 27 27 0 4 7 7 15 7 8 0 15 5
15 12 0 6 3 8 7 5 3 -4 13 2 20 13 8 11 18 18 23 15 4 -3 10 -2 12 2 1 5 32
32 66 61 35 28 60 52 56 52 -4 0 8 11 27 23 19 13 33 29 31 36 -1 7 1 10 6 7
5 -3 21 8 36 24 14 17 23 30 20 30 -4 0 4 10 17 22 39 37 85 92 69 83 -8 -5 4
11 28 35 23 24 42 50 42 57 0 7 5 13 11 13 5 0 8 4 5 9 -3 5 1 11 9 15 8 3 15
12 15 21 0 8 5 15 11 15 5 0 8 4 5 9 -3 4 3 16 14 26 10 9 22 30 25 46 4 16
10 29 14 29 8 0 43 80 41 94 -1 5 3 12 8 15 6 3 26 54 46 112 33 98 45 145 51
209 2 14 4 25 5 25 1 0 3 15 4 33 2 32 -17 46 -27 20z"/>
<path d="M275 1549 c-6 -16 0 -146 9 -189 15 -71 29 -126 35 -135 3 -5 6 -17
8 -25 1 -8 6 -23 11 -35 54 -115 78 -161 84 -163 4 -2 8 -8 8 -13 0 -27 165
-219 188 -219 7 0 11 -4 10 -8 -4 -10 66 -72 80 -72 6 0 12 -4 14 -8 13 -33
224 -141 353 -181 105 -33 135 -37 135 -21 0 6 -5 10 -10 10 -6 0 -24 12 -41
27 -17 16 -33 27 -35 26 -2 -2 -12 5 -22 15 -25 23 -50 42 -92 72 -19 13 -38
29 -42 35 -4 5 -8 6 -8 2 0 -5 -12 6 -26 23 -15 17 -29 28 -32 25 -3 -2 -12 4
-19 15 -8 11 -19 18 -24 14 -5 -3 -8 -2 -7 3 4 11 -77 84 -86 78 -3 -3 -4 -2
-2 1 7 9 -67 83 -77 77 -4 -2 -6 0 -5 4 4 13 -59 83 -67 75 -4 -4 -6 -2 -4 3
4 17 -13 45 -27 45 -8 0 -14 7 -14 15 0 7 -6 18 -14 22 -8 4 -15 13 -17 18 -1
6 -19 36 -40 67 -22 31 -39 61 -39 67 0 5 -8 15 -17 20 -10 6 -15 11 -11 11 9
0 -73 154 -84 158 -4 2 -6 7 -3 12 3 5 0 14 -7 22 -7 7 -14 18 -15 23 -1 6
-11 30 -22 55 -14 31 -22 40 -26 29z"/>
<path d="M4975 1420 c-70 -142 -174 -319 -213 -360 -12 -13 -18 -28 -15 -34 3
-6 3 -8 -2 -4 -8 8 -61 -51 -57 -64 1 -4 -2 -8 -6 -8 -12 0 -140 -129 -134
-135 3 -3 0 -5 -6 -5 -10 0 -52 -35 -114 -92 -10 -10 -22 -18 -28 -18 -5 0
-10 -7 -10 -15 0 -8 -3 -14 -7 -13 -11 3 -153 -102 -153 -113 0 -5 -6 -9 -12
-9 -7 0 -29 -14 -48 -30 -19 -16 -38 -30 -42 -30 -5 0 -8 -4 -8 -10 0 -15 27
-12 113 13 43 13 74 27 70 32 -4 4 -3 5 3 2 13 -7 107 30 112 44 2 5 8 7 13 3
5 -3 9 0 9 6 0 6 4 9 9 5 5 -3 16 1 24 9 8 8 17 12 21 9 3 -4 6 -1 6 5 0 7 5
12 11 12 19 0 108 64 102 73 -3 6 -2 7 4 4 5 -3 22 6 39 20 16 14 46 39 66 56
20 17 34 35 31 40 -3 6 -1 7 6 3 7 -4 15 2 20 16 6 13 10 19 10 14 1 -5 16 11
35 35 19 23 32 47 30 51 -3 5 0 7 8 6 7 -2 13 4 13 12 0 8 8 24 17 34 36 39
118 225 132 296 3 14 7 35 10 47 16 74 26 193 17 215 -4 13 -27 -24 -76 -122z"/>
</g>
</svg>
